<svg xmlns="http://www.w3.org/2000/svg" viewBox="0 0 100 100" role="img" aria-label="BlaXx">
  <defs>
    <mask id="bt" maskUnits="userSpaceOnUse" x="0" y="0" width="100" height="100">
      <path d="M26.75,23.0 L56.0,23.0 A15.39,15.39 0 0 1 71.39,38.39 L71.39,38.39 A15.39,15.39 0 0 1 56.0,53.78 L26.75,53.78 L26.75,23.0 Z" fill="#fff"/>
      <path d="M26.75,45.14 L57.32,45.14 A15.93,15.93 0 0 1 73.25,61.07 L73.25,61.07 A15.93,15.93 0 0 1 57.32,77.0 L26.75,77.0 L26.75,45.14 Z" fill="#fff"/>
      <rect x="26.75" y="23.0" width="7.77" height="54.0" fill="#fff"/>
      <path d="M34.52,30.56 L55.73,30.56 A7.29,7.29 0 0 1 63.02,37.85 L63.02,37.85 A7.29,7.29 0 0 1 55.73,45.14 L34.52,45.14 L34.52,30.56 Z" fill="#000"/>
      <path d="M34.52,53.78 L57.88,53.78 A7.7,7.7 0 0 1 65.58,61.48 L65.58,61.48 A7.7,7.7 0 0 1 57.88,69.17 L34.52,69.17 L34.52,53.78 Z" fill="#000"/>
      <polygon points="34.52,45.14 38.61,45.14 46.51,53.78 41.4,53.78" fill="#000"/>
    </mask>
  </defs>
  <rect width="100" height="100" rx="22.0" ry="22.0" fill="#000000"/>
  <rect width="100" height="100" fill="#C6FF00" mask="url(#bt)"/>
</svg>
