<svg xmlns="http://www.w3.org/2000/svg" viewBox="0 0 232 64" fill="none" role="img" aria-label="BlaXx">
  <defs>
    <mask id="blg" maskUnits="userSpaceOnUse" x="0" y="0" width="232" height="64">
      <path d="M10.0,10.0 L33.83,10.0 A12.54,12.54 0 0 1 46.37,22.54 L46.37,22.54 A12.54,12.54 0 0 1 33.83,35.08 L10.0,35.08 L10.0,10.0 Z" fill="#fff"/>
      <path d="M10.0,28.04 L34.9,28.04 A12.98,12.98 0 0 1 47.88,41.02 L47.88,41.02 A12.98,12.98 0 0 1 34.9,54.0 L10.0,54.0 L10.0,28.04 Z" fill="#fff"/>
      <rect x="10.0" y="10.0" width="6.33" height="44.0" fill="#fff"/>
      <path d="M16.33,16.16 L33.61,16.16 A5.94,5.94 0 0 1 39.55,22.1 L39.55,22.1 A5.94,5.94 0 0 1 33.61,28.04 L16.33,28.04 L16.33,16.16 Z" fill="#000"/>
      <path d="M16.33,35.08 L35.36,35.08 A6.27,6.27 0 0 1 41.63,41.35 L41.63,41.35 A6.27,6.27 0 0 1 35.36,47.62 L16.33,47.62 L16.33,35.08 Z" fill="#000"/>
      <polygon points="16.33,28.04 19.66,28.04 26.1,35.08 21.93,35.08" fill="#000"/>
    </mask>
  </defs>
  <rect x="10.0" y="10.0" width="37.88" height="44.0" fill="#C6FF00" mask="url(#blg)"/>
  <text x="60.88" y="43.5" font-family="'Space Grotesk','Sora','Segoe UI','Helvetica Neue',Arial,sans-serif" font-size="37" font-weight="700" letter-spacing="-1.4"><tspan fill="#FFFFFF">Bla</tspan><tspan fill="#C6FF00">Xx</tspan></text>
</svg>
